<?xml version="1.0" encoding="UTF-8"?>
<svg id="Layer_1" data-name="Layer 1" xmlns="http://www.w3.org/2000/svg" xmlns:xlink="http://www.w3.org/1999/xlink" viewBox="0 0 250 100">
  <defs>
    <style>
      .cls-1 {
        fill: url(#linear-gradient);
      }

      .cls-1, .cls-2, .cls-3, .cls-4 {
        stroke-width: 0px;
      }

      .cls-2 {
        fill: url(#linear-gradient-2);
      }

      .cls-3 {
        fill: url(#linear-gradient-3);
      }

      .cls-4 {
        fill: #fff;
      }
    </style>
    <linearGradient id="linear-gradient" x1="210.16" y1="53.98" x2="217.48" y2="53.98" gradientUnits="userSpaceOnUse">
      <stop offset="0" stop-color="#fa099b"/>
      <stop offset="1" stop-color="#ffc300"/>
    </linearGradient>
    <linearGradient id="linear-gradient-2" x1="32.52" y1="49.56" x2="67.67" y2="49.56" xlink:href="#linear-gradient"/>
    <linearGradient id="linear-gradient-3" x1="44.04" y1="53.78" x2="56.48" y2="53.78" xlink:href="#linear-gradient"/>
  </defs>
  <path id="u" class="cls-4" d="M79.33,37.24h6.21v12.38c.06.34.11.62.17.84.25.9.78,1.63,1.58,2.2.8.56,1.67.84,2.6.84,1.15,0,2.18-.42,3.06-1.27s1.33-1.84,1.33-3v-12h6.21v12.29c0,.84-.13,1.68-.38,2.49-.7,2.31-1.99,4.18-3.84,5.6-1.86,1.42-3.98,2.13-6.38,2.13-2.17,0-4.18-.65-6.04-1.94-1.86-1.3-3.15-2.97-3.89-5.03-.42-1.18-.63-2.11-.63-2.79v-12.76Z"/>
  <path id="b" class="cls-4" d="M101.97,29.21h6.21v9.21c1.75-.79,3.44-1.18,5.07-1.18,3.15,0,5.82,1.1,8,3.3,2.18,2.2,3.27,4.87,3.27,8s-1.11,5.79-3.32,7.98c-2.21,2.19-4.88,3.28-8,3.28-2.51,0-4.77-.77-6.8-2.32-2.03-1.55-3.38-3.53-4.05-5.96-.06-.28-.13-.61-.21-.97-.11-.79-.17-1.24-.17-1.35v-19.98ZM108.22,49.17c.17,1.23.74,2.27,1.71,3.11.97.84,2.08,1.26,3.32,1.26,1.38,0,2.57-.49,3.57-1.47,1-.98,1.5-2.16,1.5-3.53s-.5-2.59-1.5-3.58c-1-.98-2.19-1.47-3.57-1.47s-2.6.49-3.57,1.47c-.97.98-1.46,2.17-1.46,3.58v.63Z"/>
  <path id="r" class="cls-4" d="M135.68,37.24v6.21h-2.37c-.37,0-.63.13-.78.4-.16.27-.23.42-.23.44v15.59h-6.25v-15.42c0-1.63.51-3.1,1.54-4.39,1.03-1.29,2.34-2.17,3.95-2.62.51-.14.99-.21,1.44-.21h2.7Z"/>
  <path id="a" class="cls-4" d="M153.5,58.65c-1.69.82-3.39,1.22-5.11,1.22-3.1,0-5.74-1.11-7.94-3.33-2.2-2.22-3.29-4.88-3.29-7.99s1.1-5.8,3.32-7.99c2.21-2.19,4.88-3.29,8-3.29,2.34,0,4.48.68,6.44,2.05,1.96,1.37,3.33,3.15,4.12,5.34.45,1.27.68,2.32.68,3.17v12.04h-6.21v-1.22ZM143.37,48.56c0,1.38.5,2.57,1.5,3.57,1,1,2.19,1.5,3.57,1.5s2.57-.5,3.57-1.5c1-1,1.5-2.19,1.5-3.57s-.49-2.53-1.48-3.53c-.99-1-2.17-1.5-3.55-1.5s-2.58.49-3.59,1.46c-1.01.97-1.52,2.16-1.52,3.57Z"/>
  <path id="n" class="cls-4" d="M172.13,37.28c2.22,0,4.24.6,6.06,1.81,1.82,1.21,3.16,2.82,4.03,4.85.59,1.38.89,2.57.89,3.58v12.35h-6.21v-12.01c0-.28-.06-.53-.17-.76-.28-1.04-.84-1.9-1.67-2.57-.83-.67-1.8-1.01-2.89-1.01s-2.01.32-2.83.97c-.82.65-1.38,1.49-1.69,2.53-.06.2-.09.3-.11.32-.01.01-.05.26-.11.74v11.8h-6.21v-12.14c0-.31.04-.72.13-1.22.42-2.61,1.67-4.81,3.74-6.58s4.41-2.66,7.03-2.66Z"/>
  <path id="d" class="cls-4" d="M184.59,48.49c0-3.1,1.1-5.76,3.29-7.96,2.2-2.2,4.84-3.3,7.94-3.3,1.77,0,3.48.39,5.11,1.18v-9.21h6.21v20.11c0,.87-.24,1.94-.72,3.21-.82,2.2-2.2,3.96-4.14,5.28-1.94,1.32-4.1,1.99-6.46,1.99-3.1,0-5.74-1.11-7.94-3.32-2.2-2.21-3.29-4.87-3.29-7.98ZM190.84,48.53c0,1.4.49,2.59,1.46,3.55.97.97,2.16,1.45,3.57,1.45s2.57-.49,3.57-1.47c1-.98,1.5-2.16,1.5-3.53s-.49-2.56-1.48-3.55c-.99-1-2.17-1.49-3.55-1.49s-2.64.49-3.61,1.47c-.97.98-1.46,2.17-1.46,3.58Z"/>
  <circle id="SHORT_DOT" data-name="SHORT DOT" class="cls-1" cx="213.82" cy="53.98" r="3.66"/>
  <path id="LOGO_OUTER" data-name="LOGO OUTER" class="cls-2" d="M67.67,34.03l-21.1,5.35v4.6s1.71-.06,1.71-.06h.02s.97-.08,2.07-.08c1.37,0,2.09.12,2.44.21,5.09,1.38,8.14,6.01,7.43,11.26-.66,4.83-5.03,8.62-9.96,8.62h0c-.73,0-1.45-.08-2.16-.25-4.82-1.14-7.93-5.09-7.93-10.05,0-6.6,0-19.79,0-19.79v-1.46s-7.66-3.16-7.66-3.16v1.6s0,14.57,0,21.49c0,.98.08,1.95.23,2.89.67,4.14,2.82,7.91,6.05,10.62,3.18,2.65,7.18,4.12,11.27,4.12,1.57,0,3.14-.22,4.67-.64,3.72-1.04,6.92-3.2,9.26-6.24,2.34-3.05,3.59-6.7,3.62-10.56.03-5.31,0-15.91,0-16.37l.05-2.07Z"/>
  <circle id="DOT_1" data-name="DOT 1" class="cls-3" cx="50.26" cy="53.78" r="6.22"/>
  <path id="d-2" data-name="d" class="cls-4" d="M84.63,62.73c1.09,0,2,.38,2.74,1.13s1.1,1.69,1.1,2.82-.37,2.06-1.1,2.82-1.65,1.13-2.74,1.13h-3.16v-7.9h3.16ZM84.63,68.89c.62,0,1.13-.2,1.52-.6.39-.4.58-.94.58-1.61s-.19-1.21-.58-1.61c-.39-.4-.89-.6-1.52-.6h-1.35v4.42h1.35Z"/>
  <path id="i" class="cls-4" d="M100.09,62.73h1.81v7.9h-1.81v-7.9Z"/>
  <path id="g" class="cls-4" d="M121.68,66.23v.68c0,1.18-.37,2.12-1.1,2.83-.73.7-1.66,1.06-2.79,1.06-1.23,0-2.24-.39-3.05-1.18-.81-.79-1.21-1.76-1.21-2.91s.4-2.13,1.2-2.92c.8-.8,1.78-1.2,2.94-1.2.74,0,1.41.17,2.03.5.61.33,1.09.77,1.43,1.31l-1.53.88c-.17-.27-.43-.49-.77-.67-.34-.17-.73-.26-1.16-.26-.67,0-1.22.22-1.66.67-.44.44-.66,1.01-.66,1.7s.23,1.24.68,1.68c.45.43,1.05.65,1.81.65,1.05,0,1.72-.41,2.02-1.22h-2.11v-1.58h3.96Z"/>
  <path id="i-2" data-name="i" class="cls-4" d="M133.3,62.73h1.81v7.9h-1.81v-7.9Z"/>
  <path id="t" class="cls-4" d="M152.37,62.73v1.74h-2.03v6.16h-1.81v-6.16h-2.03v-1.74h5.87Z"/>
  <path id="a-2" data-name="a" class="cls-4" d="M168.35,70.63l-.42-1.24h-3.04l-.39,1.24h-1.97l2.69-7.9h2.3l2.69,7.9h-1.85ZM165.44,67.7h1.91l-.99-2.9-.93,2.9Z"/>
  <path id="l" class="cls-4" d="M183.29,68.89h2.82v1.74h-4.63v-7.9h1.81v6.16Z"/>
  <path id="s" class="cls-4" d="M200.16,70.79c-.81,0-1.48-.17-2.01-.52-.54-.35-.92-.83-1.15-1.43l1.56-.9c.32.73.87,1.09,1.66,1.09.71,0,1.07-.21,1.07-.64,0-.23-.11-.42-.34-.55-.23-.13-.66-.28-1.29-.46-.33-.09-.62-.19-.87-.3-.25-.11-.49-.26-.73-.45-.24-.18-.42-.42-.54-.69-.12-.28-.19-.6-.19-.96,0-.73.26-1.31.78-1.75.52-.44,1.15-.65,1.87-.65.65,0,1.22.15,1.72.46.5.3.89.75,1.17,1.33l-1.52.89c-.14-.3-.32-.53-.53-.68-.21-.15-.49-.23-.84-.23-.27,0-.48.06-.63.17-.15.12-.22.26-.22.42,0,.2.09.36.28.51.18.14.57.3,1.15.47.32.1.56.18.73.24.17.06.39.16.66.3.27.14.47.29.61.44.14.15.26.36.37.61.11.25.16.54.16.86,0,.75-.27,1.34-.81,1.78-.54.43-1.25.65-2.12.65Z"/>
</svg>